<svg xmlns="http://www.w3.org/2000/svg" viewBox="0 0 1440 720" role="img" aria-label="December · Winter Chill">
  <defs>
    <linearGradient id="sky" x1="0" y1="0" x2="0" y2="1">
      <stop offset="0%" stop-color="#a7d0f0" />
      <stop offset="100%" stop-color="#eef7ff" />
    </linearGradient>
    <linearGradient id="ground" x1="0" y1="0" x2="1" y2="1">
      <stop offset="0%" stop-color="#6b96b0" />
      <stop offset="100%" stop-color="#35543f" stop-opacity="0.85" />
    </linearGradient>
    <filter id="soft" x="-20%" y="-20%" width="140%" height="140%">
      <feGaussianBlur stdDeviation="3" />
    </filter>
  </defs>

  <rect width="1440" height="720" fill="url(#sky)" />
  <circle cx="1180" cy="140" r="90" fill="#f2f8ff" opacity="0.9" />
  <path d="M0 480 C220 430 380 520 560 480 C760 430 940 560 1120 500 C1250 455 1340 470 1440 450 L1440 720 L0 720 Z" fill="url(#ground)"/>
  <path d="M0 560 C220 520 420 600 650 555 C830 520 1080 610 1440 560 L1440 720 L0 720 Z" fill="#264733" opacity="0.55"/>

  <g stroke="#f8fdff" stroke-width="2" opacity="0.8"><line x1="300" y1="500" x2="320" y2="520"/><line x1="320" y1="500" x2="300" y2="520"/><line x1="1010" y1="490" x2="1030" y2="510"/><line x1="1030" y1="490" x2="1010" y2="510"/></g>

  <rect x="80" y="590" width="560" height="68" rx="14" fill="#0f172a" opacity="0.18"/>
  <text x="110" y="634" fill="#f7fbff" font-size="34" font-family="Georgia, serif" letter-spacing="1">December · Winter Chill</text>
</svg>
