<svg xmlns="http://www.w3.org/2000/svg" viewBox="0 0 1440 720" role="img" aria-label="February · Crisp Winter Morning">
  <defs>
    <linearGradient id="sky" x1="0" y1="0" x2="0" y2="1">
      <stop offset="0%" stop-color="#b8ddff" />
      <stop offset="100%" stop-color="#f2f8ff" />
    </linearGradient>
    <linearGradient id="ground" x1="0" y1="0" x2="1" y2="1">
      <stop offset="0%" stop-color="#7da8c3" />
      <stop offset="100%" stop-color="#35543f" stop-opacity="0.85" />
    </linearGradient>
    <filter id="soft" x="-20%" y="-20%" width="140%" height="140%">
      <feGaussianBlur stdDeviation="3" />
    </filter>
  </defs>

  <rect width="1440" height="720" fill="url(#sky)" />
  <circle cx="1180" cy="140" r="90" fill="#fff2cc" opacity="0.9" />
  <path d="M0 480 C220 430 380 520 560 480 C760 430 940 560 1120 500 C1250 455 1340 470 1440 450 L1440 720 L0 720 Z" fill="url(#ground)"/>
  <path d="M0 560 C220 520 420 600 650 555 C830 520 1080 610 1440 560 L1440 720 L0 720 Z" fill="#264733" opacity="0.55"/>

  <circle cx="280" cy="520" r="5" fill="#ffffff" opacity="0.7"/><circle cx="340" cy="500" r="4" fill="#f8fbff" opacity="0.8"/><circle cx="980" cy="520" r="6" fill="#ffffff" opacity="0.68"/>

  <rect x="80" y="590" width="560" height="68" rx="14" fill="#0f172a" opacity="0.18"/>
  <text x="110" y="634" fill="#fff7e6" font-size="34" font-family="Georgia, serif" letter-spacing="1">February · Crisp Winter Morning</text>
</svg>
